<?xml version="1.0" encoding="utf-8"?>
<!-- Generator: Adobe Illustrator 19.1.0, SVG Export Plug-In . SVG Version: 6.00 Build 0)  -->
<!DOCTYPE svg PUBLIC "-//W3C//DTD SVG 1.1//EN" "http://www.w3.org/Graphics/SVG/1.1/DTD/svg11.dtd">
<svg version="1.1" id="Layer_2" xmlns="http://www.w3.org/2000/svg" xmlns:xlink="http://www.w3.org/1999/xlink" x="0px" y="0px"
	 viewBox="-255 346.167 100 100" style="enable-background:new -255 346.167 100 100;" xml:space="preserve">
<g>
	<polygon points="-187.13,391.842 -201.105,405.817 -201.105,375.691 -208.885,375.691 -208.885,405.753 -222.797,391.842 
		-228.299,397.343 -204.962,420.678 -181.626,397.342 	"/>
	<path d="M-205,351.75c-24.297,0-44.063,19.767-44.063,44.063s19.767,44.063,44.063,44.063s44.063-19.767,44.063-44.063
		S-180.703,351.75-205,351.75z M-205,430.877c-19.334,0-35.063-15.729-35.063-35.063S-224.334,360.75-205,360.75
		s35.063,15.729,35.063,35.063S-185.666,430.877-205,430.877z"/>
</g>
</svg>
