<svg id="Layer_1" data-name="Layer 1" xmlns="http://www.w3.org/2000/svg" viewBox="0 0 527.7 526.9"><defs><style>.cls-1{fill:#fff;}</style></defs><title>linkedin</title><path class="cls-1" d="M35,201.2H144.4V553.1H35V201.2ZM89.7,26.3A63.4,63.4,0,1,1,26.3,89.7,63.42,63.42,0,0,1,89.7,26.3" transform="translate(-26.3 -26.3)"/><path class="cls-1" d="M213,201.2H317.9v48.1h1.5c14.6-27.7,50.3-56.8,103.5-56.8,110.7,0,131.1,72.9,131.1,167.6v193H444.8V382c0-40.8-.8-93.3-56.8-93.3-56.9,0-65.6,44.5-65.6,90.4V553.2H213v-352Z" transform="translate(-26.3 -26.3)"/></svg>