<?xml version="1.0" encoding="utf-8"?>
<!-- Generator: Adobe Illustrator 19.1.0, SVG Export Plug-In . SVG Version: 6.00 Build 0)  -->
<!DOCTYPE svg PUBLIC "-//W3C//DTD SVG 1.1//EN" "http://www.w3.org/Graphics/SVG/1.1/DTD/svg11.dtd">
<svg version="1.1" id="Layer_2" xmlns="http://www.w3.org/2000/svg" xmlns:xlink="http://www.w3.org/1999/xlink" x="0px" y="0px"
	 viewBox="-381.833 346.167 100 100" style="enable-background:new -381.833 346.167 100 100;" xml:space="preserve">
<g>
	<path d="M-305.871,386.148c0-19.84-16.141-35.981-35.981-35.981s-35.981,16.141-35.981,35.981s16.141,35.982,35.981,35.982
		S-305.871,405.988-305.871,386.148z M-341.852,358.167c15.429,0,27.981,12.552,27.981,27.981s-12.552,27.982-27.981,27.982
		s-27.981-12.553-27.981-27.982S-357.281,358.167-341.852,358.167z"/>
	<path d="M-289.728,424.616l-18.159-18.159l-1.665,2.671c-0.505,0.812-1.043,1.596-1.599,2.33l-1.313,1.736l17.078,17.078
		c0.646,0.646,0.646,1.697,0.001,2.343c-0.628,0.627-1.717,0.626-2.344,0.001l-17.041-17.041l-1.749,1.407
		c-0.743,0.598-1.504,1.156-2.264,1.662l-2.54,1.691l17.936,17.937c1.819,1.82,4.245,2.822,6.829,2.822s5.009-1.002,6.828-2.822
		C-285.962,434.508-285.962,428.381-289.728,424.616z"/>
	<path d="M-359.049,402.389l1.814,1.721l5.505-5.803l-1.813-1.721c-2.833-2.688-4.392-6.316-4.392-10.219
		c0-2.952,0.903-5.777,2.611-8.171l1.452-2.035l-6.51-4.648l-1.453,2.036c-2.682,3.758-4.1,8.19-4.1,12.819
		C-365.936,392.487-363.49,398.177-359.049,402.389z"/>
</g>
</svg>
