<svg id="Layer_1" data-name="Layer 1" xmlns="http://www.w3.org/2000/svg" viewBox="0 0 569.6 463.1"><defs><style>.cls-1{fill:#fff;}</style></defs><title>twitter</title><path class="cls-1" d="M586.4,68.3a233.26,233.26,0,0,1-67.1,18.4A117.44,117.44,0,0,0,570.7,22a235.6,235.6,0,0,1-74.2,28.4,116.94,116.94,0,0,0-202.2,80,110.71,110.71,0,0,0,3.1,26.6A332.12,332.12,0,0,1,56.4,34.9,117.13,117.13,0,0,0,92.6,191a117.18,117.18,0,0,1-52.9-14.6,7.08,7.08,0,0,0-.1,1.4,117,117,0,0,0,93.8,114.7,115.64,115.64,0,0,1-30.8,4.1,121.58,121.58,0,0,1-22-2.1,117.14,117.14,0,0,0,109.2,81.2A234.68,234.68,0,0,1,16.8,424,330.64,330.64,0,0,0,196,476.6c215,0,332.6-178.1,332.6-332.6,0-5-.1-10.1-0.3-15.1A242.57,242.57,0,0,0,586.4,68.3Z" transform="translate(-16.8 -13.5)"/></svg>