<?xml version="1.0" encoding="utf-8"?>
<!-- Generator: Adobe Illustrator 19.1.0, SVG Export Plug-In . SVG Version: 6.00 Build 0)  -->
<!DOCTYPE svg PUBLIC "-//W3C//DTD SVG 1.1//EN" "http://www.w3.org/Graphics/SVG/1.1/DTD/svg11.dtd">
<svg version="1.1" id="Layer_2" xmlns="http://www.w3.org/2000/svg" xmlns:xlink="http://www.w3.org/1999/xlink" x="0px" y="0px"
	 viewBox="-255 346.167 100 100" style="enable-background:new -255 346.167 100 100;" xml:space="preserve">
<g>
	<polygon points="-203.5,418.255 -203.5,371.167 -206.5,371.167 -206.5,418.181 -227.591,397.09 -229.713,399.211 -204.964,423.96 
		-204.963,423.959 -204.962,423.96 -180.213,399.211 -182.335,397.09 	"/>
	<path d="M-205,354.75c-22.643,0-41.063,18.421-41.063,41.063s18.421,41.063,41.063,41.063s41.063-18.421,41.063-41.063
		S-182.357,354.75-205,354.75z M-205,433.877c-20.988,0-38.063-17.075-38.063-38.063S-225.988,357.75-205,357.75
		s38.063,17.075,38.063,38.063S-184.012,433.877-205,433.877z"/>
</g>
</svg>
