<?xml version="1.0" encoding="utf-8"?>
<!-- Generator: Adobe Illustrator 19.1.0, SVG Export Plug-In . SVG Version: 6.00 Build 0)  -->
<!DOCTYPE svg PUBLIC "-//W3C//DTD SVG 1.1//EN" "http://www.w3.org/Graphics/SVG/1.1/DTD/svg11.dtd">
<svg version="1.1" id="Layer_2" xmlns="http://www.w3.org/2000/svg" xmlns:xlink="http://www.w3.org/1999/xlink" x="0px" y="0px"
	 viewBox="-377.5 346.167 100 100" style="enable-background:new -377.5 346.167 100 100;" xml:space="preserve">
<g>
	<polygon points="-203.5,418.255 -203.5,371.167 -206.5,371.167 -206.5,418.181 -227.591,397.09 -229.713,399.211 -204.964,423.96 
		-204.963,423.959 -204.962,423.96 -180.213,399.211 -182.335,397.09 	"/>
	<path d="M-205,346.874c-27.18,0-49.293,22.113-49.293,49.293S-232.18,445.46-205,445.46c27.181,0,49.293-22.113,49.293-49.293
		S-177.819,346.874-205,346.874z M-205,442.46c-25.526,0-46.293-20.768-46.293-46.293s20.767-46.293,46.293-46.293
		c25.526,0,46.293,20.767,46.293,46.293S-179.474,442.46-205,442.46z"/>
</g>
<g>
	<path d="M-302.037,388.148c0-18.462-15.02-33.481-33.481-33.481S-369,369.686-369,388.148c0,18.462,15.02,33.482,33.481,33.482
		S-302.037,406.61-302.037,388.148z M-335.519,418.63c-16.808,0-30.481-13.674-30.481-30.482c0-16.808,13.674-30.481,30.481-30.481
		s30.481,13.674,30.481,30.481C-305.037,404.956-318.711,418.63-335.519,418.63z"/>
	<path d="M-289.162,424.384l-15.934-15.933c-0.539,0.865-1.114,1.705-1.727,2.515l15.539,15.539c1.62,1.621,1.62,4.258,0,5.879
		c-0.781,0.78-1.825,1.211-2.939,1.211s-2.159-0.431-2.939-1.211l-15.455-15.454c-0.788,0.634-1.602,1.235-2.446,1.797
		l15.779,15.779c1.347,1.348,3.144,2.09,5.061,2.09c1.916,0,3.713-0.742,5.061-2.09
		C-286.372,431.715-286.372,427.174-289.162,424.384z"/>
	<path d="M-355.026,379.744l-2.441-1.743c-2.378,3.332-3.635,7.262-3.635,11.367c0,5.426,2.169,10.473,6.107,14.208l2.064-2.176
		c-3.335-3.164-5.171-7.437-5.171-12.032C-358.102,385.891-357.038,382.563-355.026,379.744z"/>
</g>
</svg>
