<?xml version="1.0" standalone="no"?>
<!DOCTYPE svg PUBLIC "-//W3C//DTD SVG 20010904//EN"
 "http://www.w3.org/TR/2001/REC-SVG-20010904/DTD/svg10.dtd">
<svg version="1.0" xmlns="http://www.w3.org/2000/svg"
 width="368.000000pt" height="368.000000pt" viewBox="0 0 368.000000 368.000000"
 preserveAspectRatio="xMidYMid meet">
<metadata>
Created by potrace 1.11, written by Peter Selinger 2001-2013
</metadata>
<g transform="translate(0.000000,368.000000) scale(0.100000,-0.100000)"
fill="#000000" stroke="none">
<path d="M995 3330 c-239 -48 -438 -252 -479 -491 -8 -46 -8 -175 -1 -214 45
-233 211 -416 436 -480 162 -46 369 -13 504 79 118 80 228 233 251 349 2 10 6
28 10 40 13 40 11 172 -3 241 -59 285 -309 489 -598 485 -44 -1 -98 -5 -120
-9z"/>
<path d="M2370 3324 c-169 -43 -323 -168 -398 -324 -60 -125 -81 -284 -51
-395 6 -22 13 -49 15 -60 2 -11 20 -54 41 -95 44 -87 149 -199 228 -244 303
-169 685 -65 846 231 115 212 95 474 -52 667 -40 53 -54 67 -127 123 -129 98
-336 138 -502 97z"/>
<path d="M1830 2064 c-165 -34 -311 -181 -381 -381 -45 -129 -48 -167 -49
-635 -1 -375 2 -452 14 -476 29 -57 141 -113 296 -151 120 -29 123 -29 330
-56 154 -20 684 -28 880 -13 364 28 621 93 729 183 l31 27 0 501 c0 471 -1
506 -20 572 -61 213 -200 373 -370 425 -61 18 -1371 22 -1460 4z"/>
<path d="M410 2053 c-186 -47 -332 -227 -396 -488 -9 -35 -18 -948 -10 -980
22 -86 247 -177 521 -210 28 -4 57 -8 65 -10 99 -26 1071 -27 1097 -2 1 2 -45
13 -105 25 -251 50 -386 120 -400 207 -4 22 -7 238 -6 480 1 411 2 446 22 525
52 211 169 376 318 450 39 18 35 18 -506 18 -437 0 -556 -3 -600 -15z"/>
</g>
</svg>
